<?xml version="1.0" encoding="UTF-8"?>
<svg width="121px" height="118px" viewBox="0 0 121 118" version="1.1" xmlns="http://www.w3.org/2000/svg" xmlns:xlink="http://www.w3.org/1999/xlink">
    <title>clubs</title>
    <g id="Page-1" stroke="none" stroke-width="1" fill="none" fill-rule="evenodd">
        <path d="M107.543,44.575 C98.96,40.281 88.873,42.936 80.998,46.541 C87.083,39.471 90.378,27.427 88.085,17.713 C86.523,11.098 81.041,0 61.866,0 C42.689,0 37.207,11.097 35.646,17.713 C33.296,27.666 36.812,40.067 43.188,47.055 C34.723,43.745 23.359,42.397 14.135,47.01 C6.293,50.931 0.699,58.558 0.699,69.067 C0.699,88.803 14.337,96.425 26.016,96.955 C38.69,97.534 57.155,87.1 58.833,72.018 L58.591,74.915 C58.147,79.222 55.3,104.346 48.197,116.185 L47.671,117.063 L76.059,117.063 L75.533,116.185 C68.432,104.349 65.583,79.222 65.139,74.915 L64.896,72.018 C66.557,87.064 84.396,97.522 96.3,96.958 C107.417,96.453 120.396,88.847 120.396,69.067 C120.396,56.6 115.111,48.359 107.543,44.575" id="clubs" fill="#000000"></path>
    </g>
</svg>